<svg width="16" height="16" viewBox="0 0 16 16" fill="none" xmlns="http://www.w3.org/2000/svg">
<path d="M9.37503 0.864295L7.70634 0L6.03765 0.864295L4.17963 1.1459L3.33765 2.82596L2 4.1459L2.30634 6L2 7.8541L3.33765 9.17404L4.17963 10.8541L6.03765 11.1357L7.70634 12L9.37503 11.1357L11.2331 10.8541L12.075 9.17404L13.4127 7.8541L13.1063 6L13.4127 4.1459L12.075 2.82596L11.2331 1.1459L9.37503 0.864295ZM10.5711 2.05699L11.255 3.42171L12.3416 4.4939L12.0928 6L12.3416 7.5061L11.255 8.57829L10.5711 9.94301L9.06182 10.1718L7.70634 10.8738L6.35085 10.1718L4.84158 9.94301L4.15763 8.57829L3.07106 7.5061L3.3199 6L3.07106 4.49391L4.15763 3.42171L4.84158 2.05699L6.35085 1.82824L7.70634 1.12617L9.06182 1.82824L10.5711 2.05699Z" fill="#37C3E2"/>
<path d="M3.70634 11.7938V16L7.70634 15L11.7063 16V11.7938L9.68823 12.0997L7.70633 13.1262L5.72443 12.0997L3.70634 11.7938Z" fill="#37C3E2"/>
</svg>
